<?xml version="1.0" encoding="utf-8"?>
<!-- Generator: Adobe Illustrator 15.0.2, SVG Export Plug-In . SVG Version: 6.00 Build 0)  -->
<!DOCTYPE svg PUBLIC "-//W3C//DTD SVG 1.1//EN" "http://www.w3.org/Graphics/SVG/1.1/DTD/svg11.dtd">
<svg version="1.1" id="Layer_1" xmlns="http://www.w3.org/2000/svg" xmlns:xlink="http://www.w3.org/1999/xlink" x="0px" y="0px"
	 width="75px" height="40px" viewBox="0 0 75 40" style="enable-background:new 0 0 75 40;" xml:space="preserve">
<style type="text/css">
<![CDATA[
	.st0{fill:none;stroke:#FFFFFF;stroke-width:2;stroke-miterlimit:10;}
	.st1{fill:none;stroke:#FFFFFF;stroke-miterlimit:10;}
	.st2{fill:#FFFFFF;}
	.st3{fill:none;stroke:#FFFFFF;stroke-width:3;stroke-miterlimit:10;}
]]>
</style>
<g>
	<path class="st2" d="M69.5,2C71.7,2,73,3.3,73,5.5v28.8c0,2.2-1.3,3.7-3.5,3.7H5.8C3.6,38,2,36.5,2,34.3V5.5C2,3.3,3.6,2,5.8,2H69
		 M69.5,1H5.8C3.1,1,1,2.8,1,5.5v28.8C1,37.1,3.1,39,5.8,39h63.7c2.8,0,4.5-1.9,4.5-4.7V5.5C74,2.8,72.2,1,69.5,1L69.5,1z"/>
</g>
<line class="st1" x1="39.5" y1="6" x2="39.5" y2="32"/>
<line class="st0" x1="17" y1="10" x2="26" y2="10"/>
<line class="st0" x1="17" y1="15" x2="26" y2="15"/>
<line class="st0" x1="17" y1="20" x2="26" y2="20"/>
<line class="st0" x1="13" y1="10" x2="15" y2="10"/>
<line class="st0" x1="13" y1="15" x2="15" y2="15"/>
<line class="st0" x1="13" y1="20" x2="15" y2="20"/>
<g>
	<path class="st2" d="M7.9,31.1v-6.4h1.9l1.2,4.4l1.2-4.4h2v6.4h-1.2v-5.1l-1.3,5.1h-1.3l-1.3-5.1v5.1H7.9z"/>
	<path class="st2" d="M15.9,31.1v-6.4h4.8v1.1h-3.5v1.4h3.2v1.1h-3.2V30h3.6v1.1H15.9z"/>
	<path class="st2" d="M22.3,31.1v-6.4h1.3l2.6,4.3v-4.3h1.2v6.4h-1.3l-2.6-4.2v4.2H22.3z"/>
	<path class="st2" d="M29.2,24.7h1.3v3.5c0,0.6,0,0.9,0,1.1c0.1,0.3,0.2,0.5,0.4,0.6c0.2,0.2,0.5,0.2,0.9,0.2c0.4,0,0.6-0.1,0.8-0.2
		c0.2-0.2,0.3-0.3,0.3-0.6c0-0.2,0.1-0.6,0.1-1.1v-3.6h1.3v3.4c0,0.8,0,1.3-0.1,1.6c-0.1,0.3-0.2,0.6-0.4,0.8
		c-0.2,0.2-0.4,0.4-0.8,0.5c-0.3,0.1-0.7,0.2-1.2,0.2c-0.6,0-1.1-0.1-1.4-0.2c-0.3-0.1-0.6-0.3-0.8-0.6c-0.2-0.2-0.3-0.5-0.4-0.7
		c-0.1-0.4-0.1-0.9-0.1-1.6V24.7z"/>
</g>
<circle class="st3" cx="55" cy="18.3" r="5.5"/>
<line class="st3" x1="59.4" y1="22.8" x2="64.2" y2="27.5"/>
</svg>
